<svg width="17" height="17" viewBox="0 0 17 17" fill="none" xmlns="http://www.w3.org/2000/svg">
<g clip-path="url(#clip0_3_19)">
<path d="M4.95833 0H2.83333C2.08189 0 1.36122 0.298511 0.829864 0.829864C0.298511 1.36122 0 2.08189 0 2.83333L0 4.95833C0 5.70978 0.298511 6.43045 0.829864 6.9618C1.36122 7.49316 2.08189 7.79167 2.83333 7.79167H4.95833C5.70978 7.79167 6.43045 7.49316 6.9618 6.9618C7.49316 6.43045 7.79167 5.70978 7.79167 4.95833V2.83333C7.79167 2.08189 7.49316 1.36122 6.9618 0.829864C6.43045 0.298511 5.70978 0 4.95833 0V0ZM6.375 4.95833C6.375 5.33406 6.22575 5.69439 5.96007 5.96007C5.69439 6.22575 5.33406 6.375 4.95833 6.375H2.83333C2.45761 6.375 2.09728 6.22575 1.8316 5.96007C1.56592 5.69439 1.41667 5.33406 1.41667 4.95833V2.83333C1.41667 2.45761 1.56592 2.09728 1.8316 1.8316C2.09728 1.56592 2.45761 1.41667 2.83333 1.41667H4.95833C5.33406 1.41667 5.69439 1.56592 5.96007 1.8316C6.22575 2.09728 6.375 2.45761 6.375 2.83333V4.95833Z" fill="#827EF6"/>
<path d="M14.1667 -4.76837e-07H12.0417C11.2902 -4.76837e-07 10.5695 0.298511 10.0382 0.829864C9.50684 1.36122 9.20833 2.08189 9.20833 2.83333V4.95833C9.20833 5.70978 9.50684 6.43045 10.0382 6.9618C10.5695 7.49316 11.2902 7.79167 12.0417 7.79167H14.1667C14.9181 7.79167 15.6388 7.49316 16.1701 6.9618C16.7015 6.43045 17 5.70978 17 4.95833V2.83333C17 2.08189 16.7015 1.36122 16.1701 0.829864C15.6388 0.298511 14.9181 -4.76837e-07 14.1667 -4.76837e-07V-4.76837e-07ZM15.5833 4.95833C15.5833 5.33406 15.4341 5.69439 15.1684 5.96007C14.9027 6.22574 14.5424 6.375 14.1667 6.375H12.0417C11.6659 6.375 11.3056 6.22574 11.0399 5.96007C10.7743 5.69439 10.625 5.33406 10.625 4.95833V2.83333C10.625 2.45761 10.7743 2.09728 11.0399 1.8316C11.3056 1.56592 11.6659 1.41667 12.0417 1.41667H14.1667C14.5424 1.41667 14.9027 1.56592 15.1684 1.8316C15.4341 2.09728 15.5833 2.45761 15.5833 2.83333V4.95833Z" fill="#827EF6"/>
<path d="M4.95833 9.20833H2.83333C2.08189 9.20833 1.36122 9.50684 0.829864 10.0382C0.298511 10.5696 0 11.2902 0 12.0417L0 14.1667C0 14.9181 0.298511 15.6388 0.829864 16.1701C1.36122 16.7015 2.08189 17 2.83333 17H4.95833C5.70978 17 6.43045 16.7015 6.9618 16.1701C7.49316 15.6388 7.79167 14.9181 7.79167 14.1667V12.0417C7.79167 11.2902 7.49316 10.5696 6.9618 10.0382C6.43045 9.50684 5.70978 9.20833 4.95833 9.20833ZM6.375 14.1667C6.375 14.5424 6.22575 14.9027 5.96007 15.1684C5.69439 15.4341 5.33406 15.5833 4.95833 15.5833H2.83333C2.45761 15.5833 2.09728 15.4341 1.8316 15.1684C1.56592 14.9027 1.41667 14.5424 1.41667 14.1667V12.0417C1.41667 11.6659 1.56592 11.3056 1.8316 11.0399C2.09728 10.7743 2.45761 10.625 2.83333 10.625H4.95833C5.33406 10.625 5.69439 10.7743 5.96007 11.0399C6.22575 11.3056 6.375 11.6659 6.375 12.0417V14.1667Z" fill="#827EF6"/>
<path d="M14.1667 9.20833H12.0417C11.2902 9.20833 10.5695 9.50684 10.0382 10.0382C9.50684 10.5696 9.20833 11.2902 9.20833 12.0417V14.1667C9.20833 14.9181 9.50684 15.6388 10.0382 16.1701C10.5695 16.7015 11.2902 17 12.0417 17H14.1667C14.9181 17 15.6388 16.7015 16.1701 16.1701C16.7015 15.6388 17 14.9181 17 14.1667V12.0417C17 11.2902 16.7015 10.5696 16.1701 10.0382C15.6388 9.50684 14.9181 9.20833 14.1667 9.20833ZM15.5833 14.1667C15.5833 14.5424 15.4341 14.9027 15.1684 15.1684C14.9027 15.4341 14.5424 15.5833 14.1667 15.5833H12.0417C11.6659 15.5833 11.3056 15.4341 11.0399 15.1684C10.7743 14.9027 10.625 14.5424 10.625 14.1667V12.0417C10.625 11.6659 10.7743 11.3056 11.0399 11.0399C11.3056 10.7743 11.6659 10.625 12.0417 10.625H14.1667C14.5424 10.625 14.9027 10.7743 15.1684 11.0399C15.4341 11.3056 15.5833 11.6659 15.5833 12.0417V14.1667Z" fill="#827EF6"/>
</g>
<defs>
<clipPath id="clip0_3_19">
<rect width="17" height="17" fill="white"/>
</clipPath>
</defs>
</svg>
