<svg width="10" height="10" viewBox="0 0 10 10" fill="none" xmlns="http://www.w3.org/2000/svg">
<g clip-path="url(#clip0_4_69)">
<path d="M1.66667 5.00001C1.66667 4.53977 1.29357 4.16668 0.833333 4.16668C0.373096 4.16668 0 4.53977 0 5.00001C0 5.46025 0.373096 5.83334 0.833333 5.83334C1.29357 5.83334 1.66667 5.46025 1.66667 5.00001Z" fill="black"/>
<path d="M5.83333 5.00001C5.83333 4.53977 5.46024 4.16668 5 4.16668C4.53976 4.16668 4.16667 4.53977 4.16667 5.00001C4.16667 5.46025 4.53976 5.83334 5 5.83334C5.46024 5.83334 5.83333 5.46025 5.83333 5.00001Z" fill="black"/>
<path d="M10 5.00001C10 4.53977 9.62691 4.16668 9.16667 4.16668C8.70643 4.16668 8.33334 4.53977 8.33334 5.00001C8.33334 5.46025 8.70643 5.83334 9.16667 5.83334C9.62691 5.83334 10 5.46025 10 5.00001Z" fill="black"/>
</g>
<defs>
<clipPath id="clip0_4_69">
<rect width="10" height="10" fill="white" transform="matrix(0 -1 1 0 0 10)"/>
</clipPath>
</defs>
</svg>
