<svg width="10" height="10" viewBox="0 0 10 10" fill="none" xmlns="http://www.w3.org/2000/svg">
<g clip-path="url(#clip0_4_56)">
<path d="M5 0C4.0111 0 3.0444 0.293245 2.22215 0.842652C1.39991 1.39206 0.759043 2.17295 0.380605 3.08658C0.00216643 4.00021 -0.0968503 5.00555 0.0960758 5.97545C0.289002 6.94536 0.765206 7.83627 1.46447 8.53553C2.16373 9.2348 3.05465 9.711 4.02455 9.90393C4.99446 10.0969 5.99979 9.99784 6.91342 9.6194C7.82705 9.24096 8.60794 8.6001 9.15735 7.77785C9.70676 6.95561 10 5.98891 10 5C9.99857 3.67436 9.47132 2.40342 8.53395 1.46605C7.59658 0.528678 6.32564 0.00143378 5 0V0ZM5 9.16667C4.17591 9.16667 3.37033 8.9223 2.68513 8.46446C1.99992 8.00662 1.46587 7.35587 1.1505 6.59452C0.835139 5.83316 0.752625 4.99538 0.913397 4.18712C1.07417 3.37887 1.47101 2.63644 2.05372 2.05372C2.63644 1.471 3.37887 1.07417 4.18713 0.913395C4.99538 0.752623 5.83316 0.835137 6.59452 1.1505C7.35588 1.46587 8.00662 1.99992 8.46446 2.68512C8.9223 3.37033 9.16667 4.17591 9.16667 5C9.16546 6.1047 8.72608 7.1638 7.94494 7.94494C7.1638 8.72608 6.1047 9.16545 5 9.16667ZM5.83334 5C5.834 5.14644 5.79606 5.29047 5.72334 5.41758C5.65062 5.54468 5.5457 5.65039 5.41912 5.72404C5.29255 5.79769 5.14881 5.83668 5.00237 5.8371C4.85593 5.83751 4.71197 5.79933 4.58498 5.7264C4.45799 5.65346 4.35247 5.54836 4.27903 5.42166C4.2056 5.29497 4.16685 5.15116 4.16668 5.00472C4.16651 4.85828 4.20494 4.71438 4.27808 4.58752C4.35123 4.46065 4.45652 4.35531 4.58334 4.28208V2.91667C4.58334 2.80616 4.62723 2.70018 4.70537 2.62204C4.78351 2.5439 4.8895 2.5 5 2.5C5.11051 2.5 5.21649 2.5439 5.29463 2.62204C5.37277 2.70018 5.41667 2.80616 5.41667 2.91667V4.28208C5.54297 4.35471 5.64795 4.45927 5.72108 4.58528C5.79422 4.71129 5.83293 4.85431 5.83334 5Z" fill="#F7F7F7"/>
</g>
<defs>
<clipPath id="clip0_4_56">
<rect width="10" height="10" fill="white"/>
</clipPath>
</defs>
</svg>
