<svg width="10" height="10" viewBox="0 0 10 10" fill="none" xmlns="http://www.w3.org/2000/svg">
<g clip-path="url(#clip0_4_81)">
<path d="M9.93167 3.66417C9.84644 3.39288 9.67616 3.15621 9.44603 2.98918C9.21589 2.82215 8.9381 2.73361 8.65375 2.73667H6.83334L6.28042 1.01333C6.19347 0.742067 6.02262 0.505424 5.79249 0.337529C5.56237 0.169633 5.28487 0.0791626 5 0.0791626C4.71514 0.0791626 4.43764 0.169633 4.20752 0.337529C3.97739 0.505424 3.80654 0.742067 3.71959 1.01333L3.16667 2.73667H1.34625C1.06281 2.73707 0.786751 2.82704 0.557496 2.99371C0.328241 3.16039 0.157521 3.39525 0.0697213 3.66475C-0.0180784 3.93425 -0.018467 4.2246 0.068611 4.49433C0.155689 4.76406 0.325779 4.99938 0.554587 5.16667L2.03625 6.25L1.47292 7.99459C1.38188 8.26516 1.38073 8.55792 1.46963 8.82921C1.55854 9.10049 1.73273 9.33578 1.96625 9.5C2.19578 9.66949 2.47392 9.76029 2.75923 9.75887C3.04455 9.75744 3.32177 9.66387 3.54959 9.49209L5 8.42459L6.45084 9.49084C6.67994 9.65936 6.95658 9.75089 7.24099 9.75228C7.5254 9.75366 7.80292 9.66483 8.03366 9.49855C8.26439 9.33227 8.43646 9.0971 8.52512 8.82687C8.61378 8.55663 8.61447 8.26524 8.52709 7.99459L7.96375 6.25L9.44709 5.16667C9.67851 5.00148 9.8506 4.76617 9.93787 4.49556C10.0251 4.22496 10.023 3.93344 9.93167 3.66417ZM8.95542 4.49375L7.22875 5.75584C7.15783 5.80757 7.10506 5.88039 7.07798 5.96389C7.05089 6.04739 7.05087 6.13732 7.07792 6.22084L7.73417 8.25C7.76738 8.35292 7.76709 8.46372 7.73336 8.56647C7.69963 8.66921 7.63418 8.75862 7.54643 8.82183C7.45868 8.88503 7.35315 8.91879 7.24501 8.91823C7.13687 8.91768 7.03169 8.88285 6.94459 8.81875L5.24667 7.56875C5.17516 7.51622 5.08874 7.48789 5 7.48789C4.91127 7.48789 4.82485 7.51622 4.75334 7.56875L3.05542 8.81875C2.96837 8.88372 2.86289 8.91927 2.75428 8.92025C2.64567 8.92124 2.53956 8.88761 2.45135 8.82423C2.36314 8.76086 2.2974 8.67104 2.26367 8.56779C2.22994 8.46454 2.22997 8.35323 2.26375 8.25L2.92209 6.22084C2.94914 6.13732 2.94912 6.04739 2.92203 5.96389C2.89494 5.88039 2.84218 5.80757 2.77125 5.75584L1.04459 4.49375C0.957631 4.43008 0.893018 4.34056 0.85998 4.23798C0.826941 4.13539 0.827166 4.02499 0.860623 3.92254C0.894079 3.82009 0.959056 3.73084 1.04627 3.66752C1.13349 3.60421 1.23848 3.57008 1.34625 3.57H3.47125C3.55947 3.57 3.64541 3.542 3.71669 3.49003C3.78798 3.43807 3.84093 3.36482 3.86792 3.28083L4.51375 1.26792C4.54691 1.16491 4.61188 1.07508 4.69934 1.01136C4.78679 0.947629 4.89221 0.913295 5.00042 0.913295C5.10863 0.913295 5.21405 0.947629 5.3015 1.01136C5.38896 1.07508 5.45394 1.16491 5.48709 1.26792L6.13292 3.28083C6.15991 3.36482 6.21287 3.43807 6.28415 3.49003C6.35543 3.542 6.44137 3.57 6.52959 3.57H8.65459C8.76236 3.57008 8.86735 3.60421 8.95457 3.66752C9.04179 3.73084 9.10676 3.82009 9.14022 3.92254C9.17368 4.02499 9.1739 4.13539 9.14086 4.23798C9.10782 4.34056 9.04321 4.43008 8.95625 4.49375H8.95542Z" fill="#F6F6F6"/>
</g>
<defs>
<clipPath id="clip0_4_81">
<rect width="10" height="10" fill="white"/>
</clipPath>
</defs>
</svg>
